solid concave1_hole_0.5mm_sim
   facet normal 0.000000e+00 1.000000e+00 0.000000e+00
      outer loop
         vertex 2.986603e+01 2.000000e+01 4.722650e+01
         vertex 2.013397e+01 2.000000e+01 4.722650e+01
         vertex 9.500001e+00 2.000000e+01 5.336603e+01
      endloop
   endfacet
   facet normal 0.000000e+00 1.000000e+00 -0.000000e+00
      outer loop
         vertex 5.000000e+01 2.000000e+01 0.000000e+00
         vertex 4.050000e+01 2.000000e+01 1.663397e+01
         vertex 5.000000e+01 2.000000e+01 7.000000e+01
      endloop
   endfacet
   facet normal 0.000000e+00 1.000000e+00 0.000000e+00
      outer loop
         vertex 5.000000e+01 2.000000e+01 7.000000e+01
         vertex 4.050000e+01 2.000000e+01 1.663397e+01
         vertex 4.050000e+01 2.000000e+01 5.336603e+01
      endloop
   endfacet
   facet normal 0.000000e+00 1.000000e+00 0.000000e+00
      outer loop
         vertex 5.000000e+01 2.000000e+01 7.000000e+01
         vertex 4.050000e+01 2.000000e+01 5.336603e+01
         vertex 0.000000e+00 2.000000e+01 7.000000e+01
      endloop
   endfacet
   facet normal 0.000000e+00 1.000000e+00 0.000000e+00
      outer loop
         vertex 2.986603e+01 2.000000e+01 2.277350e+01
         vertex 4.050000e+01 2.000000e+01 1.663397e+01
         vertex 2.013397e+01 2.000000e+01 2.277350e+01
      endloop
   endfacet
   facet normal 0.000000e+00 1.000000e+00 0.000000e+00
      outer loop
         vertex 2.013397e+01 2.000000e+01 2.277350e+01
         vertex 4.050000e+01 2.000000e+01 1.663397e+01
         vertex 5.000000e+01 2.000000e+01 0.000000e+00
      endloop
   endfacet
   facet normal 0.000000e+00 1.000000e+00 0.000000e+00
      outer loop
         vertex 2.013397e+01 2.000000e+01 2.277350e+01
         vertex 5.000000e+01 2.000000e+01 0.000000e+00
         vertex 9.500001e+00 2.000000e+01 1.663397e+01
      endloop
   endfacet
   facet normal 0.000000e+00 1.000000e+00 0.000000e+00
      outer loop
         vertex 9.500001e+00 2.000000e+01 1.663397e+01
         vertex 5.000000e+01 2.000000e+01 0.000000e+00
         vertex 0.000000e+00 2.000000e+01 0.000000e+00
      endloop
   endfacet
   facet normal 0.000000e+00 1.000000e+00 -0.000000e+00
      outer loop
         vertex 9.500001e+00 2.000000e+01 1.663397e+01
         vertex 0.000000e+00 2.000000e+01 0.000000e+00
         vertex 9.500001e+00 2.000000e+01 5.336603e+01
      endloop
   endfacet
   facet normal 0.000000e+00 1.000000e+00 0.000000e+00
      outer loop
         vertex 9.500001e+00 2.000000e+01 5.336603e+01
         vertex 0.000000e+00 2.000000e+01 0.000000e+00
         vertex 0.000000e+00 2.000000e+01 7.000000e+01
      endloop
   endfacet
   facet normal -0.000000e+00 1.000000e+00 -0.000000e+00
      outer loop
         vertex 9.500001e+00 2.000000e+01 5.336603e+01
         vertex 0.000000e+00 2.000000e+01 7.000000e+01
         vertex 2.986603e+01 2.000000e+01 4.722650e+01
      endloop
   endfacet
   facet normal 0.000000e+00 1.000000e+00 -0.000000e+00
      outer loop
         vertex 2.986603e+01 2.000000e+01 4.722650e+01
         vertex 0.000000e+00 2.000000e+01 7.000000e+01
         vertex 4.050000e+01 2.000000e+01 5.336603e+01
      endloop
   endfacet
   facet normal -0.000000e+00 -1.000000e+00 -0.000000e+00
      outer loop
         vertex 9.500001e+00 0.000000e+00 5.336603e+01
         vertex 0.000000e+00 0.000000e+00 7.000000e+01
         vertex 9.500001e+00 0.000000e+00 1.663397e+01
      endloop
   endfacet
   facet normal -0.000000e+00 -1.000000e+00 0.000000e+00
      outer loop
         vertex 9.500001e+00 0.000000e+00 1.663397e+01
         vertex 0.000000e+00 0.000000e+00 7.000000e+01
         vertex 0.000000e+00 0.000000e+00 0.000000e+00
      endloop
   endfacet
   facet normal 0.000000e+00 -1.000000e+00 -0.000000e+00
      outer loop
         vertex 9.500001e+00 0.000000e+00 1.663397e+01
         vertex 0.000000e+00 0.000000e+00 0.000000e+00
         vertex 2.013397e+01 0.000000e+00 2.277350e+01
      endloop
   endfacet
   facet normal 0.000000e+00 -1.000000e+00 -0.000000e+00
      outer loop
         vertex 2.013397e+01 0.000000e+00 2.277350e+01
         vertex 0.000000e+00 0.000000e+00 0.000000e+00
         vertex 5.000000e+01 0.000000e+00 0.000000e+00
      endloop
   endfacet
   facet normal 0.000000e+00 -1.000000e+00 0.000000e+00
      outer loop
         vertex 2.013397e+01 0.000000e+00 2.277350e+01
         vertex 5.000000e+01 0.000000e+00 0.000000e+00
         vertex 2.986603e+01 0.000000e+00 2.277350e+01
      endloop
   endfacet
   facet normal 0.000000e+00 -1.000000e+00 0.000000e+00
      outer loop
         vertex 9.500001e+00 0.000000e+00 5.336603e+01
         vertex 2.013397e+01 0.000000e+00 4.722650e+01
         vertex 0.000000e+00 0.000000e+00 7.000000e+01
      endloop
   endfacet
   facet normal 0.000000e+00 -1.000000e+00 0.000000e+00
      outer loop
         vertex 0.000000e+00 0.000000e+00 7.000000e+01
         vertex 2.013397e+01 0.000000e+00 4.722650e+01
         vertex 2.986603e+01 0.000000e+00 4.722650e+01
      endloop
   endfacet
   facet normal 0.000000e+00 -1.000000e+00 0.000000e+00
      outer loop
         vertex 0.000000e+00 0.000000e+00 7.000000e+01
         vertex 2.986603e+01 0.000000e+00 4.722650e+01
         vertex 5.000000e+01 0.000000e+00 7.000000e+01
      endloop
   endfacet
   facet normal 0.000000e+00 -1.000000e+00 0.000000e+00
      outer loop
         vertex 5.000000e+01 0.000000e+00 7.000000e+01
         vertex 2.986603e+01 0.000000e+00 4.722650e+01
         vertex 4.050000e+01 0.000000e+00 5.336603e+01
      endloop
   endfacet
   facet normal 0.000000e+00 -1.000000e+00 -0.000000e+00
      outer loop
         vertex 5.000000e+01 0.000000e+00 7.000000e+01
         vertex 4.050000e+01 0.000000e+00 5.336603e+01
         vertex 5.000000e+01 0.000000e+00 0.000000e+00
      endloop
   endfacet
   facet normal 0.000000e+00 -1.000000e+00 0.000000e+00
      outer loop
         vertex 5.000000e+01 0.000000e+00 0.000000e+00
         vertex 4.050000e+01 0.000000e+00 5.336603e+01
         vertex 4.050000e+01 0.000000e+00 1.663397e+01
      endloop
   endfacet
   facet normal 0.000000e+00 -1.000000e+00 0.000000e+00
      outer loop
         vertex 5.000000e+01 0.000000e+00 0.000000e+00
         vertex 4.050000e+01 0.000000e+00 1.663397e+01
         vertex 2.986603e+01 0.000000e+00 2.277350e+01
      endloop
   endfacet
   facet normal -1.000000e+00 -0.000000e+00 -0.000000e+00
      outer loop
         vertex 0.000000e+00 2.000000e+01 7.000000e+01
         vertex 0.000000e+00 2.000000e+01 0.000000e+00
         vertex 0.000000e+00 0.000000e+00 7.000000e+01
      endloop
   endfacet
   facet normal -1.000000e+00 0.000000e+00 0.000000e+00
      outer loop
         vertex 0.000000e+00 0.000000e+00 7.000000e+01
         vertex 0.000000e+00 2.000000e+01 0.000000e+00
         vertex 0.000000e+00 0.000000e+00 0.000000e+00
      endloop
   endfacet
   facet normal 0.000000e+00 0.000000e+00 1.000000e+00
      outer loop
         vertex 5.000000e+01 2.000000e+01 7.000000e+01
         vertex 0.000000e+00 2.000000e+01 7.000000e+01
         vertex 5.000000e+01 0.000000e+00 7.000000e+01
      endloop
   endfacet
   facet normal 0.000000e+00 0.000000e+00 1.000000e+00
      outer loop
         vertex 5.000000e+01 0.000000e+00 7.000000e+01
         vertex 0.000000e+00 2.000000e+01 7.000000e+01
         vertex 0.000000e+00 0.000000e+00 7.000000e+01
      endloop
   endfacet
   facet normal 1.000000e+00 0.000000e+00 -0.000000e+00
      outer loop
         vertex 5.000000e+01 2.000000e+01 0.000000e+00
         vertex 5.000000e+01 2.000000e+01 7.000000e+01
         vertex 5.000000e+01 0.000000e+00 0.000000e+00
      endloop
   endfacet
   facet normal 1.000000e+00 0.000000e+00 0.000000e+00
      outer loop
         vertex 5.000000e+01 0.000000e+00 0.000000e+00
         vertex 5.000000e+01 2.000000e+01 7.000000e+01
         vertex 5.000000e+01 0.000000e+00 7.000000e+01
      endloop
   endfacet
   facet normal 0.000000e+00 0.000000e+00 -1.000000e+00
      outer loop
         vertex 0.000000e+00 2.000000e+01 0.000000e+00
         vertex 5.000000e+01 2.000000e+01 0.000000e+00
         vertex 0.000000e+00 0.000000e+00 0.000000e+00
      endloop
   endfacet
   facet normal 0.000000e+00 0.000000e+00 -1.000000e+00
      outer loop
         vertex 0.000000e+00 0.000000e+00 0.000000e+00
         vertex 5.000000e+01 2.000000e+01 0.000000e+00
         vertex 5.000000e+01 0.000000e+00 0.000000e+00
      endloop
   endfacet
   facet normal 0.000000e+00 0.000000e+00 1.000000e+00
      outer loop
         vertex 2.986603e+01 2.000000e+01 2.277350e+01
         vertex 2.013397e+01 2.000000e+01 2.277350e+01
         vertex 2.986603e+01 0.000000e+00 2.277350e+01
      endloop
   endfacet
   facet normal 0.000000e+00 0.000000e+00 1.000000e+00
      outer loop
         vertex 2.986603e+01 0.000000e+00 2.277350e+01
         vertex 2.013397e+01 2.000000e+01 2.277350e+01
         vertex 2.013397e+01 0.000000e+00 2.277350e+01
      endloop
   endfacet
   facet normal -5.000000e-01 0.000000e+00 8.660254e-01
      outer loop
         vertex 2.013397e+01 2.000000e+01 2.277350e+01
         vertex 9.500001e+00 2.000000e+01 1.663397e+01
         vertex 2.013397e+01 -6.938894e-15 2.277350e+01
      endloop
   endfacet
   facet normal -5.000000e-01 0.000000e+00 8.660254e-01
      outer loop
         vertex 2.013397e+01 -6.938894e-15 2.277350e+01
         vertex 9.500001e+00 2.000000e+01 1.663397e+01
         vertex 9.500001e+00 -6.938894e-15 1.663397e+01
      endloop
   endfacet
   facet normal 1.000000e+00 0.000000e+00 -0.000000e+00
      outer loop
         vertex 9.500001e+00 2.000000e+01 1.663397e+01
         vertex 9.500001e+00 2.000000e+01 5.336603e+01
         vertex 9.500001e+00 0.000000e+00 1.663397e+01
      endloop
   endfacet
   facet normal 1.000000e+00 0.000000e+00 0.000000e+00
      outer loop
         vertex 9.500001e+00 0.000000e+00 1.663397e+01
         vertex 9.500001e+00 2.000000e+01 5.336603e+01
         vertex 9.500001e+00 0.000000e+00 5.336603e+01
      endloop
   endfacet
   facet normal -5.000000e-01 -0.000000e+00 -8.660254e-01
      outer loop
         vertex 9.500001e+00 2.000000e+01 5.336603e+01
         vertex 2.013397e+01 2.000000e+01 4.722650e+01
         vertex 9.500001e+00 0.000000e+00 5.336603e+01
      endloop
   endfacet
   facet normal -5.000000e-01 0.000000e+00 -8.660254e-01
      outer loop
         vertex 9.500001e+00 0.000000e+00 5.336603e+01
         vertex 2.013397e+01 2.000000e+01 4.722650e+01
         vertex 2.013397e+01 0.000000e+00 4.722650e+01
      endloop
   endfacet
   facet normal 0.000000e+00 0.000000e+00 -1.000000e+00
      outer loop
         vertex 2.013397e+01 2.000000e+01 4.722650e+01
         vertex 2.986603e+01 2.000000e+01 4.722650e+01
         vertex 2.013397e+01 0.000000e+00 4.722650e+01
      endloop
   endfacet
   facet normal 0.000000e+00 0.000000e+00 -1.000000e+00
      outer loop
         vertex 2.013397e+01 0.000000e+00 4.722650e+01
         vertex 2.986603e+01 2.000000e+01 4.722650e+01
         vertex 2.986603e+01 0.000000e+00 4.722650e+01
      endloop
   endfacet
   facet normal 5.000000e-01 0.000000e+00 -8.660254e-01
      outer loop
         vertex 2.986603e+01 2.000000e+01 4.722650e+01
         vertex 4.050000e+01 2.000000e+01 5.336603e+01
         vertex 2.986603e+01 0.000000e+00 4.722650e+01
      endloop
   endfacet
   facet normal 5.000000e-01 0.000000e+00 -8.660254e-01
      outer loop
         vertex 2.986603e+01 0.000000e+00 4.722650e+01
         vertex 4.050000e+01 2.000000e+01 5.336603e+01
         vertex 4.050000e+01 0.000000e+00 5.336603e+01
      endloop
   endfacet
   facet normal -1.000000e+00 -0.000000e+00 -0.000000e+00
      outer loop
         vertex 4.050000e+01 2.000000e+01 5.336603e+01
         vertex 4.050000e+01 2.000000e+01 1.663397e+01
         vertex 4.050000e+01 0.000000e+00 5.336603e+01
      endloop
   endfacet
   facet normal -1.000000e+00 0.000000e+00 0.000000e+00
      outer loop
         vertex 4.050000e+01 0.000000e+00 5.336603e+01
         vertex 4.050000e+01 2.000000e+01 1.663397e+01
         vertex 4.050000e+01 0.000000e+00 1.663397e+01
      endloop
   endfacet
   facet normal 5.000000e-01 0.000000e+00 8.660254e-01
      outer loop
         vertex 4.050000e+01 2.000000e+01 1.663397e+01
         vertex 2.986603e+01 2.000000e+01 2.277350e+01
         vertex 4.050000e+01 -6.938894e-15 1.663397e+01
      endloop
   endfacet
   facet normal 5.000000e-01 0.000000e+00 8.660254e-01
      outer loop
         vertex 4.050000e+01 -6.938894e-15 1.663397e+01
         vertex 2.986603e+01 2.000000e+01 2.277350e+01
         vertex 2.986603e+01 -6.938894e-15 2.277350e+01
      endloop
   endfacet
endsolid