solid convex_polygon_hole_0.5mm
   facet normal 0.000000e+00 1.000000e+00 0.000000e+00
      outer loop
         vertex 5.000000e+01 2.000000e+01 7.000000e+01
         vertex 5.000000e+01 2.000000e+01 0.000000e+00
         vertex 4.050000e+01 2.000000e+01 2.479289e+01
      endloop
   endfacet
   facet normal 0.000000e+00 1.000000e+00 0.000000e+00
      outer loop
         vertex 0.000000e+00 2.000000e+01 0.000000e+00
         vertex 1.988842e+01 2.000000e+01 1.246778e+01
         vertex 5.000000e+01 2.000000e+01 0.000000e+00
      endloop
   endfacet
   facet normal 0.000000e+00 1.000000e+00 0.000000e+00
      outer loop
         vertex 5.000000e+01 2.000000e+01 0.000000e+00
         vertex 1.988842e+01 2.000000e+01 1.246778e+01
         vertex 3.024651e+01 2.000000e+01 1.453940e+01
      endloop
   endfacet
   facet normal 0.000000e+00 1.000000e+00 0.000000e+00
      outer loop
         vertex 5.000000e+01 2.000000e+01 0.000000e+00
         vertex 3.024651e+01 2.000000e+01 1.453940e+01
         vertex 4.050000e+01 2.000000e+01 2.479289e+01
      endloop
   endfacet
   facet normal 0.000000e+00 1.000000e+00 0.000000e+00
      outer loop
         vertex 4.050000e+01 2.000000e+01 2.479289e+01
         vertex 4.050000e+01 2.000000e+01 4.515139e+01
         vertex 5.000000e+01 2.000000e+01 7.000000e+01
      endloop
   endfacet
   facet normal 0.000000e+00 1.000000e+00 0.000000e+00
      outer loop
         vertex 5.000000e+01 2.000000e+01 7.000000e+01
         vertex 4.050000e+01 2.000000e+01 4.515139e+01
         vertex 3.017119e+01 2.000000e+01 6.064461e+01
      endloop
   endfacet
   facet normal 0.000000e+00 1.000000e+00 0.000000e+00
      outer loop
         vertex 5.000000e+01 2.000000e+01 7.000000e+01
         vertex 3.017119e+01 2.000000e+01 6.064461e+01
         vertex 0.000000e+00 2.000000e+01 7.000000e+01
      endloop
   endfacet
   facet normal 0.000000e+00 1.000000e+00 0.000000e+00
      outer loop
         vertex 0.000000e+00 2.000000e+01 7.000000e+01
         vertex 3.017119e+01 2.000000e+01 6.064461e+01
         vertex 9.500001e+00 2.000000e+01 5.030902e+01
      endloop
   endfacet
   facet normal 0.000000e+00 1.000000e+00 0.000000e+00
      outer loop
         vertex 0.000000e+00 2.000000e+01 7.000000e+01
         vertex 9.500001e+00 2.000000e+01 5.030902e+01
         vertex 0.000000e+00 2.000000e+01 0.000000e+00
      endloop
   endfacet
   facet normal 0.000000e+00 1.000000e+00 0.000000e+00
      outer loop
         vertex 0.000000e+00 2.000000e+01 0.000000e+00
         vertex 9.500001e+00 2.000000e+01 5.030902e+01
         vertex 9.500001e+00 2.000000e+01 1.973967e+01
      endloop
   endfacet
   facet normal 0.000000e+00 1.000000e+00 0.000000e+00
      outer loop
         vertex 0.000000e+00 2.000000e+01 0.000000e+00
         vertex 9.500001e+00 2.000000e+01 1.973967e+01
         vertex 1.988842e+01 2.000000e+01 1.246778e+01
      endloop
   endfacet
   facet normal 0.000000e+00 -1.000000e+00 0.000000e+00
      outer loop
         vertex 0.000000e+00 0.000000e+00 7.000000e+01
         vertex 0.000000e+00 0.000000e+00 0.000000e+00
         vertex 9.500001e+00 0.000000e+00 1.973967e+01
      endloop
   endfacet
   facet normal 0.000000e+00 -1.000000e+00 0.000000e+00
      outer loop
         vertex 9.500001e+00 0.000000e+00 1.973967e+01
         vertex 9.500001e+00 0.000000e+00 5.030902e+01
         vertex 0.000000e+00 0.000000e+00 7.000000e+01
      endloop
   endfacet
   facet normal 0.000000e+00 -1.000000e+00 0.000000e+00
      outer loop
         vertex 0.000000e+00 0.000000e+00 7.000000e+01
         vertex 9.500001e+00 0.000000e+00 5.030902e+01
         vertex 3.017119e+01 0.000000e+00 6.064461e+01
      endloop
   endfacet
   facet normal 0.000000e+00 -1.000000e+00 0.000000e+00
      outer loop
         vertex 0.000000e+00 0.000000e+00 7.000000e+01
         vertex 3.017119e+01 0.000000e+00 6.064461e+01
         vertex 5.000000e+01 0.000000e+00 7.000000e+01
      endloop
   endfacet
   facet normal 0.000000e+00 -1.000000e+00 0.000000e+00
      outer loop
         vertex 5.000000e+01 0.000000e+00 7.000000e+01
         vertex 3.017119e+01 0.000000e+00 6.064461e+01
         vertex 4.050000e+01 0.000000e+00 4.515139e+01
      endloop
   endfacet
   facet normal 0.000000e+00 -1.000000e+00 -0.000000e+00
      outer loop
         vertex 5.000000e+01 0.000000e+00 7.000000e+01
         vertex 4.050000e+01 0.000000e+00 4.515139e+01
         vertex 5.000000e+01 0.000000e+00 0.000000e+00
      endloop
   endfacet
   facet normal 0.000000e+00 -1.000000e+00 0.000000e+00
      outer loop
         vertex 4.050000e+01 0.000000e+00 4.515139e+01
         vertex 4.050000e+01 0.000000e+00 2.479289e+01
         vertex 5.000000e+01 0.000000e+00 0.000000e+00
      endloop
   endfacet
   facet normal 0.000000e+00 -1.000000e+00 0.000000e+00
      outer loop
         vertex 5.000000e+01 0.000000e+00 0.000000e+00
         vertex 4.050000e+01 0.000000e+00 2.479289e+01
         vertex 3.024651e+01 0.000000e+00 1.453940e+01
      endloop
   endfacet
   facet normal 0.000000e+00 -1.000000e+00 0.000000e+00
      outer loop
         vertex 5.000000e+01 0.000000e+00 0.000000e+00
         vertex 3.024651e+01 0.000000e+00 1.453940e+01
         vertex 0.000000e+00 0.000000e+00 0.000000e+00
      endloop
   endfacet
   facet normal 0.000000e+00 -1.000000e+00 0.000000e+00
      outer loop
         vertex 0.000000e+00 0.000000e+00 0.000000e+00
         vertex 3.024651e+01 0.000000e+00 1.453940e+01
         vertex 1.988842e+01 0.000000e+00 1.246778e+01
      endloop
   endfacet
   facet normal 0.000000e+00 -1.000000e+00 0.000000e+00
      outer loop
         vertex 0.000000e+00 0.000000e+00 0.000000e+00
         vertex 1.988842e+01 0.000000e+00 1.246778e+01
         vertex 9.500001e+00 0.000000e+00 1.973967e+01
      endloop
   endfacet
   facet normal -1.000000e+00 -0.000000e+00 -0.000000e+00
      outer loop
         vertex 0.000000e+00 2.000000e+01 7.000000e+01
         vertex 0.000000e+00 2.000000e+01 0.000000e+00
         vertex 0.000000e+00 0.000000e+00 7.000000e+01
      endloop
   endfacet
   facet normal -1.000000e+00 0.000000e+00 0.000000e+00
      outer loop
         vertex 0.000000e+00 0.000000e+00 7.000000e+01
         vertex 0.000000e+00 2.000000e+01 0.000000e+00
         vertex 0.000000e+00 0.000000e+00 0.000000e+00
      endloop
   endfacet
   facet normal 0.000000e+00 0.000000e+00 1.000000e+00
      outer loop
         vertex 5.000000e+01 2.000000e+01 7.000000e+01
         vertex 0.000000e+00 2.000000e+01 7.000000e+01
         vertex 5.000000e+01 0.000000e+00 7.000000e+01
      endloop
   endfacet
   facet normal 0.000000e+00 0.000000e+00 1.000000e+00
      outer loop
         vertex 5.000000e+01 0.000000e+00 7.000000e+01
         vertex 0.000000e+00 2.000000e+01 7.000000e+01
         vertex 0.000000e+00 0.000000e+00 7.000000e+01
      endloop
   endfacet
   facet normal 1.000000e+00 0.000000e+00 -0.000000e+00
      outer loop
         vertex 5.000000e+01 2.000000e+01 0.000000e+00
         vertex 5.000000e+01 2.000000e+01 7.000000e+01
         vertex 5.000000e+01 0.000000e+00 0.000000e+00
      endloop
   endfacet
   facet normal 1.000000e+00 0.000000e+00 0.000000e+00
      outer loop
         vertex 5.000000e+01 0.000000e+00 0.000000e+00
         vertex 5.000000e+01 2.000000e+01 7.000000e+01
         vertex 5.000000e+01 0.000000e+00 7.000000e+01
      endloop
   endfacet
   facet normal 0.000000e+00 0.000000e+00 -1.000000e+00
      outer loop
         vertex 0.000000e+00 2.000000e+01 0.000000e+00
         vertex 5.000000e+01 2.000000e+01 0.000000e+00
         vertex 0.000000e+00 0.000000e+00 0.000000e+00
      endloop
   endfacet
   facet normal 0.000000e+00 0.000000e+00 -1.000000e+00
      outer loop
         vertex 0.000000e+00 0.000000e+00 0.000000e+00
         vertex 5.000000e+01 2.000000e+01 0.000000e+00
         vertex 5.000000e+01 0.000000e+00 0.000000e+00
      endloop
   endfacet
   facet normal -1.961162e-01 0.000000e+00 9.805807e-01
      outer loop
         vertex 3.024651e+01 2.000000e+01 1.453940e+01
         vertex 1.988842e+01 2.000000e+01 1.246778e+01
         vertex 3.024651e+01 0.000000e+00 1.453940e+01
      endloop
   endfacet
   facet normal -1.961162e-01 0.000000e+00 9.805807e-01
      outer loop
         vertex 3.024651e+01 0.000000e+00 1.453940e+01
         vertex 1.988842e+01 2.000000e+01 1.246778e+01
         vertex 1.988842e+01 0.000000e+00 1.246778e+01
      endloop
   endfacet
   facet normal 5.734624e-01 0.000000e+00 8.192319e-01
      outer loop
         vertex 1.988842e+01 2.000000e+01 1.246778e+01
         vertex 9.500001e+00 2.000000e+01 1.973967e+01
         vertex 1.988842e+01 0.000000e+00 1.246778e+01
      endloop
   endfacet
   facet normal 5.734624e-01 0.000000e+00 8.192319e-01
      outer loop
         vertex 1.988842e+01 0.000000e+00 1.246778e+01
         vertex 9.500001e+00 2.000000e+01 1.973967e+01
         vertex 9.500001e+00 0.000000e+00 1.973967e+01
      endloop
   endfacet
   facet normal 1.000000e+00 0.000000e+00 -0.000000e+00
      outer loop
         vertex 9.500001e+00 2.000000e+01 1.973967e+01
         vertex 9.500001e+00 2.000000e+01 5.030902e+01
         vertex 9.500001e+00 0.000000e+00 1.973967e+01
      endloop
   endfacet
   facet normal 1.000000e+00 0.000000e+00 0.000000e+00
      outer loop
         vertex 9.500001e+00 0.000000e+00 1.973967e+01
         vertex 9.500001e+00 2.000000e+01 5.030902e+01
         vertex 9.500001e+00 0.000000e+00 5.030902e+01
      endloop
   endfacet
   facet normal 4.472136e-01 0.000000e+00 -8.944272e-01
      outer loop
         vertex 9.500001e+00 2.000000e+01 5.030902e+01
         vertex 3.017119e+01 2.000000e+01 6.064461e+01
         vertex 9.500001e+00 0.000000e+00 5.030902e+01
      endloop
   endfacet
   facet normal 4.472136e-01 0.000000e+00 -8.944272e-01
      outer loop
         vertex 9.500001e+00 0.000000e+00 5.030902e+01
         vertex 3.017119e+01 2.000000e+01 6.064461e+01
         vertex 3.017119e+01 0.000000e+00 6.064461e+01
      endloop
   endfacet
   facet normal -8.320503e-01 -0.000000e+00 -5.547002e-01
      outer loop
         vertex 3.017119e+01 2.000000e+01 6.064461e+01
         vertex 4.050000e+01 2.000000e+01 4.515139e+01
         vertex 3.017119e+01 0.000000e+00 6.064461e+01
      endloop
   endfacet
   facet normal -8.320503e-01 0.000000e+00 -5.547002e-01
      outer loop
         vertex 3.017119e+01 0.000000e+00 6.064461e+01
         vertex 4.050000e+01 2.000000e+01 4.515139e+01
         vertex 4.050000e+01 0.000000e+00 4.515139e+01
      endloop
   endfacet
   facet normal -1.000000e+00 -0.000000e+00 -0.000000e+00
      outer loop
         vertex 4.050000e+01 2.000000e+01 4.515139e+01
         vertex 4.050000e+01 2.000000e+01 2.479289e+01
         vertex 4.050000e+01 0.000000e+00 4.515139e+01
      endloop
   endfacet
   facet normal -1.000000e+00 0.000000e+00 0.000000e+00
      outer loop
         vertex 4.050000e+01 0.000000e+00 4.515139e+01
         vertex 4.050000e+01 2.000000e+01 2.479289e+01
         vertex 4.050000e+01 0.000000e+00 2.479289e+01
      endloop
   endfacet
   facet normal -7.071068e-01 0.000000e+00 7.071068e-01
      outer loop
         vertex 4.050000e+01 2.000000e+01 2.479289e+01
         vertex 3.024651e+01 2.000000e+01 1.453940e+01
         vertex 4.050000e+01 0.000000e+00 2.479289e+01
      endloop
   endfacet
   facet normal -7.071068e-01 0.000000e+00 7.071068e-01
      outer loop
         vertex 4.050000e+01 0.000000e+00 2.479289e+01
         vertex 3.024651e+01 2.000000e+01 1.453940e+01
         vertex 3.024651e+01 0.000000e+00 1.453940e+01
      endloop
   endfacet
endsolid