solid octagon_hole_0.5mm
   facet normal -0.000000e+00 1.000000e+00 0.000000e+00
      outer loop
         vertex 0.000000e+00 2.000000e+01 7.000000e+01
         vertex 5.000000e+01 2.000000e+01 7.000000e+01
         vertex 3.142031e+01 2.000000e+01 5.050000e+01
      endloop
   endfacet
   facet normal 0.000000e+00 1.000000e+00 -0.000000e+00
      outer loop
         vertex 5.000000e+01 2.000000e+01 0.000000e+00
         vertex 4.050000e+01 2.000000e+01 2.857969e+01
         vertex 5.000000e+01 2.000000e+01 7.000000e+01
      endloop
   endfacet
   facet normal 0.000000e+00 1.000000e+00 0.000000e+00
      outer loop
         vertex 5.000000e+01 2.000000e+01 7.000000e+01
         vertex 4.050000e+01 2.000000e+01 2.857969e+01
         vertex 4.050000e+01 2.000000e+01 4.142031e+01
      endloop
   endfacet
   facet normal 0.000000e+00 1.000000e+00 0.000000e+00
      outer loop
         vertex 5.000000e+01 2.000000e+01 7.000000e+01
         vertex 4.050000e+01 2.000000e+01 4.142031e+01
         vertex 3.142031e+01 2.000000e+01 5.050000e+01
      endloop
   endfacet
   facet normal 0.000000e+00 1.000000e+00 0.000000e+00
      outer loop
         vertex 3.142031e+01 2.000000e+01 5.050000e+01
         vertex 1.857969e+01 2.000000e+01 5.050000e+01
         vertex 0.000000e+00 2.000000e+01 7.000000e+01
      endloop
   endfacet
   facet normal 0.000000e+00 1.000000e+00 0.000000e+00
      outer loop
         vertex 0.000000e+00 2.000000e+01 7.000000e+01
         vertex 1.857969e+01 2.000000e+01 5.050000e+01
         vertex 9.500001e+00 2.000000e+01 4.142031e+01
      endloop
   endfacet
   facet normal 0.000000e+00 1.000000e+00 0.000000e+00
      outer loop
         vertex 0.000000e+00 2.000000e+01 7.000000e+01
         vertex 9.500001e+00 2.000000e+01 4.142031e+01
         vertex 0.000000e+00 2.000000e+01 0.000000e+00
      endloop
   endfacet
   facet normal 0.000000e+00 1.000000e+00 0.000000e+00
      outer loop
         vertex 9.500001e+00 2.000000e+01 4.142031e+01
         vertex 9.500001e+00 2.000000e+01 2.857969e+01
         vertex 0.000000e+00 2.000000e+01 0.000000e+00
      endloop
   endfacet
   facet normal 0.000000e+00 1.000000e+00 0.000000e+00
      outer loop
         vertex 0.000000e+00 2.000000e+01 0.000000e+00
         vertex 9.500001e+00 2.000000e+01 2.857969e+01
         vertex 1.857969e+01 2.000000e+01 1.950000e+01
      endloop
   endfacet
   facet normal 0.000000e+00 1.000000e+00 0.000000e+00
      outer loop
         vertex 0.000000e+00 2.000000e+01 0.000000e+00
         vertex 1.857969e+01 2.000000e+01 1.950000e+01
         vertex 5.000000e+01 2.000000e+01 0.000000e+00
      endloop
   endfacet
   facet normal 0.000000e+00 1.000000e+00 0.000000e+00
      outer loop
         vertex 5.000000e+01 2.000000e+01 0.000000e+00
         vertex 1.857969e+01 2.000000e+01 1.950000e+01
         vertex 3.142031e+01 2.000000e+01 1.950000e+01
      endloop
   endfacet
   facet normal 0.000000e+00 1.000000e+00 0.000000e+00
      outer loop
         vertex 5.000000e+01 2.000000e+01 0.000000e+00
         vertex 3.142031e+01 2.000000e+01 1.950000e+01
         vertex 4.050000e+01 2.000000e+01 2.857969e+01
      endloop
   endfacet
   facet normal 0.000000e+00 -1.000000e+00 0.000000e+00
      outer loop
         vertex 0.000000e+00 0.000000e+00 0.000000e+00
         vertex 5.000000e+01 0.000000e+00 0.000000e+00
         vertex 3.142031e+01 0.000000e+00 1.950000e+01
      endloop
   endfacet
   facet normal -0.000000e+00 -1.000000e+00 0.000000e+00
      outer loop
         vertex 3.142031e+01 0.000000e+00 1.950000e+01
         vertex 1.857969e+01 0.000000e+00 1.950000e+01
         vertex 0.000000e+00 0.000000e+00 0.000000e+00
      endloop
   endfacet
   facet normal 0.000000e+00 -1.000000e+00 0.000000e+00
      outer loop
         vertex 0.000000e+00 0.000000e+00 0.000000e+00
         vertex 1.857969e+01 0.000000e+00 1.950000e+01
         vertex 9.500001e+00 0.000000e+00 2.857969e+01
      endloop
   endfacet
   facet normal 0.000000e+00 -1.000000e+00 0.000000e+00
      outer loop
         vertex 0.000000e+00 0.000000e+00 0.000000e+00
         vertex 9.500001e+00 0.000000e+00 2.857969e+01
         vertex 0.000000e+00 0.000000e+00 7.000000e+01
      endloop
   endfacet
   facet normal 0.000000e+00 -1.000000e+00 0.000000e+00
      outer loop
         vertex 9.500001e+00 0.000000e+00 2.857969e+01
         vertex 9.500001e+00 0.000000e+00 4.142031e+01
         vertex 0.000000e+00 0.000000e+00 7.000000e+01
      endloop
   endfacet
   facet normal 0.000000e+00 -1.000000e+00 0.000000e+00
      outer loop
         vertex 0.000000e+00 0.000000e+00 7.000000e+01
         vertex 9.500001e+00 0.000000e+00 4.142031e+01
         vertex 1.857969e+01 0.000000e+00 5.050000e+01
      endloop
   endfacet
   facet normal 0.000000e+00 -1.000000e+00 0.000000e+00
      outer loop
         vertex 0.000000e+00 0.000000e+00 7.000000e+01
         vertex 1.857969e+01 0.000000e+00 5.050000e+01
         vertex 5.000000e+01 0.000000e+00 7.000000e+01
      endloop
   endfacet
   facet normal 0.000000e+00 -1.000000e+00 0.000000e+00
      outer loop
         vertex 1.857969e+01 0.000000e+00 5.050000e+01
         vertex 3.142031e+01 0.000000e+00 5.050000e+01
         vertex 5.000000e+01 0.000000e+00 7.000000e+01
      endloop
   endfacet
   facet normal 0.000000e+00 -1.000000e+00 0.000000e+00
      outer loop
         vertex 5.000000e+01 0.000000e+00 7.000000e+01
         vertex 3.142031e+01 0.000000e+00 5.050000e+01
         vertex 4.050000e+01 0.000000e+00 4.142031e+01
      endloop
   endfacet
   facet normal 0.000000e+00 -1.000000e+00 -0.000000e+00
      outer loop
         vertex 5.000000e+01 0.000000e+00 7.000000e+01
         vertex 4.050000e+01 0.000000e+00 4.142031e+01
         vertex 5.000000e+01 0.000000e+00 0.000000e+00
      endloop
   endfacet
   facet normal 0.000000e+00 -1.000000e+00 0.000000e+00
      outer loop
         vertex 5.000000e+01 0.000000e+00 0.000000e+00
         vertex 4.050000e+01 0.000000e+00 4.142031e+01
         vertex 4.050000e+01 0.000000e+00 2.857969e+01
      endloop
   endfacet
   facet normal 0.000000e+00 -1.000000e+00 0.000000e+00
      outer loop
         vertex 5.000000e+01 0.000000e+00 0.000000e+00
         vertex 4.050000e+01 0.000000e+00 2.857969e+01
         vertex 3.142031e+01 0.000000e+00 1.950000e+01
      endloop
   endfacet
   facet normal -1.000000e+00 -0.000000e+00 -0.000000e+00
      outer loop
         vertex 0.000000e+00 2.000000e+01 7.000000e+01
         vertex 0.000000e+00 2.000000e+01 0.000000e+00
         vertex 0.000000e+00 0.000000e+00 7.000000e+01
      endloop
   endfacet
   facet normal -1.000000e+00 0.000000e+00 0.000000e+00
      outer loop
         vertex 0.000000e+00 0.000000e+00 7.000000e+01
         vertex 0.000000e+00 2.000000e+01 0.000000e+00
         vertex 0.000000e+00 0.000000e+00 0.000000e+00
      endloop
   endfacet
   facet normal 0.000000e+00 0.000000e+00 1.000000e+00
      outer loop
         vertex 5.000000e+01 2.000000e+01 7.000000e+01
         vertex 0.000000e+00 2.000000e+01 7.000000e+01
         vertex 5.000000e+01 0.000000e+00 7.000000e+01
      endloop
   endfacet
   facet normal 0.000000e+00 0.000000e+00 1.000000e+00
      outer loop
         vertex 5.000000e+01 0.000000e+00 7.000000e+01
         vertex 0.000000e+00 2.000000e+01 7.000000e+01
         vertex 0.000000e+00 0.000000e+00 7.000000e+01
      endloop
   endfacet
   facet normal 1.000000e+00 0.000000e+00 -0.000000e+00
      outer loop
         vertex 5.000000e+01 2.000000e+01 0.000000e+00
         vertex 5.000000e+01 2.000000e+01 7.000000e+01
         vertex 5.000000e+01 0.000000e+00 0.000000e+00
      endloop
   endfacet
   facet normal 1.000000e+00 0.000000e+00 0.000000e+00
      outer loop
         vertex 5.000000e+01 0.000000e+00 0.000000e+00
         vertex 5.000000e+01 2.000000e+01 7.000000e+01
         vertex 5.000000e+01 0.000000e+00 7.000000e+01
      endloop
   endfacet
   facet normal 0.000000e+00 0.000000e+00 -1.000000e+00
      outer loop
         vertex 0.000000e+00 2.000000e+01 0.000000e+00
         vertex 5.000000e+01 2.000000e+01 0.000000e+00
         vertex 0.000000e+00 0.000000e+00 0.000000e+00
      endloop
   endfacet
   facet normal 0.000000e+00 0.000000e+00 -1.000000e+00
      outer loop
         vertex 0.000000e+00 0.000000e+00 0.000000e+00
         vertex 5.000000e+01 2.000000e+01 0.000000e+00
         vertex 5.000000e+01 0.000000e+00 0.000000e+00
      endloop
   endfacet
   facet normal -1.000000e+00 -0.000000e+00 -0.000000e+00
      outer loop
         vertex 4.050000e+01 2.000000e+01 4.142031e+01
         vertex 4.050000e+01 2.000000e+01 2.857969e+01
         vertex 4.050000e+01 0.000000e+00 4.142031e+01
      endloop
   endfacet
   facet normal -1.000000e+00 0.000000e+00 0.000000e+00
      outer loop
         vertex 4.050000e+01 0.000000e+00 4.142031e+01
         vertex 4.050000e+01 2.000000e+01 2.857969e+01
         vertex 4.050000e+01 0.000000e+00 2.857969e+01
      endloop
   endfacet
   facet normal -7.071068e-01 0.000000e+00 7.071068e-01
      outer loop
         vertex 4.050000e+01 2.000000e+01 2.857969e+01
         vertex 3.142031e+01 2.000000e+01 1.950000e+01
         vertex 4.050000e+01 -6.938894e-15 2.857969e+01
      endloop
   endfacet
   facet normal -7.071068e-01 0.000000e+00 7.071068e-01
      outer loop
         vertex 4.050000e+01 -6.938894e-15 2.857969e+01
         vertex 3.142031e+01 2.000000e+01 1.950000e+01
         vertex 3.142031e+01 -6.938894e-15 1.950000e+01
      endloop
   endfacet
   facet normal 0.000000e+00 0.000000e+00 1.000000e+00
      outer loop
         vertex 3.142031e+01 2.000000e+01 1.950000e+01
         vertex 1.857969e+01 2.000000e+01 1.950000e+01
         vertex 3.142031e+01 0.000000e+00 1.950000e+01
      endloop
   endfacet
   facet normal 0.000000e+00 0.000000e+00 1.000000e+00
      outer loop
         vertex 3.142031e+01 0.000000e+00 1.950000e+01
         vertex 1.857969e+01 2.000000e+01 1.950000e+01
         vertex 1.857969e+01 0.000000e+00 1.950000e+01
      endloop
   endfacet
   facet normal 7.071068e-01 0.000000e+00 7.071068e-01
      outer loop
         vertex 1.857969e+01 2.000000e+01 1.950000e+01
         vertex 9.500001e+00 2.000000e+01 2.857969e+01
         vertex 1.857969e+01 0.000000e+00 1.950000e+01
      endloop
   endfacet
   facet normal 7.071068e-01 0.000000e+00 7.071068e-01
      outer loop
         vertex 1.857969e+01 0.000000e+00 1.950000e+01
         vertex 9.500001e+00 2.000000e+01 2.857969e+01
         vertex 9.500001e+00 0.000000e+00 2.857969e+01
      endloop
   endfacet
   facet normal 1.000000e+00 0.000000e+00 -0.000000e+00
      outer loop
         vertex 9.500001e+00 2.000000e+01 2.857969e+01
         vertex 9.500001e+00 2.000000e+01 4.142031e+01
         vertex 9.500001e+00 0.000000e+00 2.857969e+01
      endloop
   endfacet
   facet normal 1.000000e+00 0.000000e+00 0.000000e+00
      outer loop
         vertex 9.500001e+00 0.000000e+00 2.857969e+01
         vertex 9.500001e+00 2.000000e+01 4.142031e+01
         vertex 9.500001e+00 0.000000e+00 4.142031e+01
      endloop
   endfacet
   facet normal 7.071068e-01 0.000000e+00 -7.071068e-01
      outer loop
         vertex 9.500001e+00 2.000000e+01 4.142031e+01
         vertex 1.857969e+01 2.000000e+01 5.050000e+01
         vertex 9.500001e+00 0.000000e+00 4.142031e+01
      endloop
   endfacet
   facet normal 7.071068e-01 0.000000e+00 -7.071068e-01
      outer loop
         vertex 9.500001e+00 0.000000e+00 4.142031e+01
         vertex 1.857969e+01 2.000000e+01 5.050000e+01
         vertex 1.857969e+01 0.000000e+00 5.050000e+01
      endloop
   endfacet
   facet normal 0.000000e+00 0.000000e+00 -1.000000e+00
      outer loop
         vertex 1.857969e+01 2.000000e+01 5.050000e+01
         vertex 3.142031e+01 2.000000e+01 5.050000e+01
         vertex 1.857969e+01 0.000000e+00 5.050000e+01
      endloop
   endfacet
   facet normal 0.000000e+00 0.000000e+00 -1.000000e+00
      outer loop
         vertex 1.857969e+01 0.000000e+00 5.050000e+01
         vertex 3.142031e+01 2.000000e+01 5.050000e+01
         vertex 3.142031e+01 0.000000e+00 5.050000e+01
      endloop
   endfacet
   facet normal -7.071068e-01 -0.000000e+00 -7.071068e-01
      outer loop
         vertex 3.142031e+01 2.000000e+01 5.050000e+01
         vertex 4.050000e+01 2.000000e+01 4.142031e+01
         vertex 3.142031e+01 0.000000e+00 5.050000e+01
      endloop
   endfacet
   facet normal -7.071068e-01 0.000000e+00 -7.071068e-01
      outer loop
         vertex 3.142031e+01 0.000000e+00 5.050000e+01
         vertex 4.050000e+01 2.000000e+01 4.142031e+01
         vertex 4.050000e+01 0.000000e+00 4.142031e+01
      endloop
   endfacet
endsolid