solid trapezoid_hole_2.5mm
   facet normal 0.000000e+00 1.000000e+00 -0.000000e+00
      outer loop
         vertex 7.500000e+00 2.000000e+01 2.319810e+01
         vertex 0.000000e+00 2.000000e+01 0.000000e+00
         vertex 7.500000e+00 2.000000e+01 4.680190e+01
      endloop
   endfacet
   facet normal 0.000000e+00 1.000000e+00 0.000000e+00
      outer loop
         vertex 7.500000e+00 2.000000e+01 4.680190e+01
         vertex 0.000000e+00 2.000000e+01 0.000000e+00
         vertex 0.000000e+00 2.000000e+01 7.000000e+01
      endloop
   endfacet
   facet normal 0.000000e+00 1.000000e+00 -0.000000e+00
      outer loop
         vertex 7.500000e+00 2.000000e+01 4.680190e+01
         vertex 0.000000e+00 2.000000e+01 7.000000e+01
         vertex 4.250000e+01 2.000000e+01 5.846857e+01
      endloop
   endfacet
   facet normal 0.000000e+00 1.000000e+00 -0.000000e+00
      outer loop
         vertex 4.250000e+01 2.000000e+01 5.846857e+01
         vertex 0.000000e+00 2.000000e+01 7.000000e+01
         vertex 5.000000e+01 2.000000e+01 7.000000e+01
      endloop
   endfacet
   facet normal -0.000000e+00 1.000000e+00 0.000000e+00
      outer loop
         vertex 4.250000e+01 2.000000e+01 5.846857e+01
         vertex 5.000000e+01 2.000000e+01 7.000000e+01
         vertex 4.250000e+01 2.000000e+01 1.153143e+01
      endloop
   endfacet
   facet normal -0.000000e+00 1.000000e+00 0.000000e+00
      outer loop
         vertex 4.250000e+01 2.000000e+01 1.153143e+01
         vertex 5.000000e+01 2.000000e+01 7.000000e+01
         vertex 5.000000e+01 2.000000e+01 0.000000e+00
      endloop
   endfacet
   facet normal 0.000000e+00 1.000000e+00 0.000000e+00
      outer loop
         vertex 4.250000e+01 2.000000e+01 1.153143e+01
         vertex 5.000000e+01 2.000000e+01 0.000000e+00
         vertex 7.500000e+00 2.000000e+01 2.319810e+01
      endloop
   endfacet
   facet normal 0.000000e+00 1.000000e+00 0.000000e+00
      outer loop
         vertex 7.500000e+00 2.000000e+01 2.319810e+01
         vertex 5.000000e+01 2.000000e+01 0.000000e+00
         vertex 0.000000e+00 2.000000e+01 0.000000e+00
      endloop
   endfacet
   facet normal 0.000000e+00 -1.000000e+00 0.000000e+00
      outer loop
         vertex 0.000000e+00 0.000000e+00 0.000000e+00
         vertex 7.500000e+00 0.000000e+00 2.319810e+01
         vertex 7.500000e+00 0.000000e+00 4.680190e+01
      endloop
   endfacet
   facet normal 0.000000e+00 -1.000000e+00 -0.000000e+00
      outer loop
         vertex 7.500000e+00 0.000000e+00 2.319810e+01
         vertex 0.000000e+00 0.000000e+00 0.000000e+00
         vertex 4.250000e+01 0.000000e+00 1.153143e+01
      endloop
   endfacet
   facet normal 0.000000e+00 -1.000000e+00 -0.000000e+00
      outer loop
         vertex 4.250000e+01 0.000000e+00 1.153143e+01
         vertex 0.000000e+00 0.000000e+00 0.000000e+00
         vertex 5.000000e+01 0.000000e+00 0.000000e+00
      endloop
   endfacet
   facet normal 0.000000e+00 -1.000000e+00 0.000000e+00
      outer loop
         vertex 4.250000e+01 0.000000e+00 1.153143e+01
         vertex 5.000000e+01 0.000000e+00 0.000000e+00
         vertex 4.250000e+01 0.000000e+00 5.846857e+01
      endloop
   endfacet
   facet normal 0.000000e+00 -1.000000e+00 0.000000e+00
      outer loop
         vertex 4.250000e+01 0.000000e+00 5.846857e+01
         vertex 5.000000e+01 0.000000e+00 0.000000e+00
         vertex 5.000000e+01 0.000000e+00 7.000000e+01
      endloop
   endfacet
   facet normal -0.000000e+00 -1.000000e+00 0.000000e+00
      outer loop
         vertex 4.250000e+01 0.000000e+00 5.846857e+01
         vertex 5.000000e+01 0.000000e+00 7.000000e+01
         vertex 7.500000e+00 0.000000e+00 4.680190e+01
      endloop
   endfacet
   facet normal 0.000000e+00 -1.000000e+00 0.000000e+00
      outer loop
         vertex 7.500000e+00 0.000000e+00 4.680190e+01
         vertex 5.000000e+01 0.000000e+00 7.000000e+01
         vertex 0.000000e+00 0.000000e+00 7.000000e+01
      endloop
   endfacet
   facet normal -0.000000e+00 -1.000000e+00 0.000000e+00
      outer loop
         vertex 7.500000e+00 0.000000e+00 4.680190e+01
         vertex 0.000000e+00 0.000000e+00 7.000000e+01
         vertex 0.000000e+00 0.000000e+00 0.000000e+00
      endloop
   endfacet
   facet normal -1.000000e+00 -0.000000e+00 -0.000000e+00
      outer loop
         vertex 0.000000e+00 2.000000e+01 7.000000e+01
         vertex 0.000000e+00 2.000000e+01 0.000000e+00
         vertex 0.000000e+00 0.000000e+00 7.000000e+01
      endloop
   endfacet
   facet normal -1.000000e+00 0.000000e+00 0.000000e+00
      outer loop
         vertex 0.000000e+00 0.000000e+00 7.000000e+01
         vertex 0.000000e+00 2.000000e+01 0.000000e+00
         vertex 0.000000e+00 0.000000e+00 0.000000e+00
      endloop
   endfacet
   facet normal 0.000000e+00 0.000000e+00 1.000000e+00
      outer loop
         vertex 5.000000e+01 2.000000e+01 7.000000e+01
         vertex 0.000000e+00 2.000000e+01 7.000000e+01
         vertex 5.000000e+01 0.000000e+00 7.000000e+01
      endloop
   endfacet
   facet normal 0.000000e+00 0.000000e+00 1.000000e+00
      outer loop
         vertex 5.000000e+01 0.000000e+00 7.000000e+01
         vertex 0.000000e+00 2.000000e+01 7.000000e+01
         vertex 0.000000e+00 0.000000e+00 7.000000e+01
      endloop
   endfacet
   facet normal 1.000000e+00 0.000000e+00 -0.000000e+00
      outer loop
         vertex 5.000000e+01 2.000000e+01 0.000000e+00
         vertex 5.000000e+01 2.000000e+01 7.000000e+01
         vertex 5.000000e+01 0.000000e+00 0.000000e+00
      endloop
   endfacet
   facet normal 1.000000e+00 0.000000e+00 0.000000e+00
      outer loop
         vertex 5.000000e+01 0.000000e+00 0.000000e+00
         vertex 5.000000e+01 2.000000e+01 7.000000e+01
         vertex 5.000000e+01 0.000000e+00 7.000000e+01
      endloop
   endfacet
   facet normal 0.000000e+00 0.000000e+00 -1.000000e+00
      outer loop
         vertex 0.000000e+00 2.000000e+01 0.000000e+00
         vertex 5.000000e+01 2.000000e+01 0.000000e+00
         vertex 0.000000e+00 0.000000e+00 0.000000e+00
      endloop
   endfacet
   facet normal 0.000000e+00 0.000000e+00 -1.000000e+00
      outer loop
         vertex 0.000000e+00 0.000000e+00 0.000000e+00
         vertex 5.000000e+01 2.000000e+01 0.000000e+00
         vertex 5.000000e+01 0.000000e+00 0.000000e+00
      endloop
   endfacet
   facet normal 3.162278e-01 0.000000e+00 9.486833e-01
      outer loop
         vertex 4.250000e+01 2.000000e+01 1.153143e+01
         vertex 7.500000e+00 2.000000e+01 2.319810e+01
         vertex 4.250000e+01 -6.938894e-15 1.153143e+01
      endloop
   endfacet
   facet normal 3.162278e-01 0.000000e+00 9.486833e-01
      outer loop
         vertex 4.250000e+01 -6.938894e-15 1.153143e+01
         vertex 7.500000e+00 2.000000e+01 2.319810e+01
         vertex 7.500000e+00 -6.938894e-15 2.319810e+01
      endloop
   endfacet
   facet normal 1.000000e+00 0.000000e+00 -0.000000e+00
      outer loop
         vertex 7.500000e+00 2.000000e+01 2.319810e+01
         vertex 7.500000e+00 2.000000e+01 4.680190e+01
         vertex 7.500000e+00 0.000000e+00 2.319810e+01
      endloop
   endfacet
   facet normal 1.000000e+00 0.000000e+00 0.000000e+00
      outer loop
         vertex 7.500000e+00 0.000000e+00 2.319810e+01
         vertex 7.500000e+00 2.000000e+01 4.680190e+01
         vertex 7.500000e+00 0.000000e+00 4.680190e+01
      endloop
   endfacet
   facet normal 3.162278e-01 0.000000e+00 -9.486833e-01
      outer loop
         vertex 7.500000e+00 2.000000e+01 4.680190e+01
         vertex 4.250000e+01 2.000000e+01 5.846857e+01
         vertex 7.500000e+00 -6.938894e-15 4.680190e+01
      endloop
   endfacet
   facet normal 3.162278e-01 0.000000e+00 -9.486833e-01
      outer loop
         vertex 7.500000e+00 -6.938894e-15 4.680190e+01
         vertex 4.250000e+01 2.000000e+01 5.846857e+01
         vertex 4.250000e+01 -6.938894e-15 5.846857e+01
      endloop
   endfacet
   facet normal -1.000000e+00 -0.000000e+00 -0.000000e+00
      outer loop
         vertex 4.250000e+01 2.000000e+01 5.846857e+01
         vertex 4.250000e+01 2.000000e+01 1.153143e+01
         vertex 4.250000e+01 0.000000e+00 5.846857e+01
      endloop
   endfacet
   facet normal -1.000000e+00 0.000000e+00 0.000000e+00
      outer loop
         vertex 4.250000e+01 0.000000e+00 5.846857e+01
         vertex 4.250000e+01 2.000000e+01 1.153143e+01
         vertex 4.250000e+01 0.000000e+00 1.153143e+01
      endloop
   endfacet
endsolid