solid trapezoid_hole_0.5mm
   facet normal 0.000000e+00 1.000000e+00 -0.000000e+00
      outer loop
         vertex 9.500001e+00 2.000000e+01 2.463962e+01
         vertex 0.000000e+00 2.000000e+01 0.000000e+00
         vertex 9.500001e+00 2.000000e+01 4.536038e+01
      endloop
   endfacet
   facet normal 0.000000e+00 1.000000e+00 0.000000e+00
      outer loop
         vertex 9.500001e+00 2.000000e+01 4.536038e+01
         vertex 0.000000e+00 2.000000e+01 0.000000e+00
         vertex 0.000000e+00 2.000000e+01 7.000000e+01
      endloop
   endfacet
   facet normal 0.000000e+00 1.000000e+00 -0.000000e+00
      outer loop
         vertex 9.500001e+00 2.000000e+01 4.536038e+01
         vertex 0.000000e+00 2.000000e+01 7.000000e+01
         vertex 4.050000e+01 2.000000e+01 5.569371e+01
      endloop
   endfacet
   facet normal 0.000000e+00 1.000000e+00 -0.000000e+00
      outer loop
         vertex 4.050000e+01 2.000000e+01 5.569371e+01
         vertex 0.000000e+00 2.000000e+01 7.000000e+01
         vertex 5.000000e+01 2.000000e+01 7.000000e+01
      endloop
   endfacet
   facet normal -0.000000e+00 1.000000e+00 0.000000e+00
      outer loop
         vertex 4.050000e+01 2.000000e+01 5.569371e+01
         vertex 5.000000e+01 2.000000e+01 7.000000e+01
         vertex 4.050000e+01 2.000000e+01 1.430629e+01
      endloop
   endfacet
   facet normal -0.000000e+00 1.000000e+00 0.000000e+00
      outer loop
         vertex 4.050000e+01 2.000000e+01 1.430629e+01
         vertex 5.000000e+01 2.000000e+01 7.000000e+01
         vertex 5.000000e+01 2.000000e+01 0.000000e+00
      endloop
   endfacet
   facet normal 0.000000e+00 1.000000e+00 0.000000e+00
      outer loop
         vertex 4.050000e+01 2.000000e+01 1.430629e+01
         vertex 5.000000e+01 2.000000e+01 0.000000e+00
         vertex 9.500001e+00 2.000000e+01 2.463962e+01
      endloop
   endfacet
   facet normal 0.000000e+00 1.000000e+00 0.000000e+00
      outer loop
         vertex 9.500001e+00 2.000000e+01 2.463962e+01
         vertex 5.000000e+01 2.000000e+01 0.000000e+00
         vertex 0.000000e+00 2.000000e+01 0.000000e+00
      endloop
   endfacet
   facet normal -0.000000e+00 -1.000000e+00 -0.000000e+00
      outer loop
         vertex 9.500001e+00 0.000000e+00 4.536038e+01
         vertex 0.000000e+00 0.000000e+00 7.000000e+01
         vertex 9.500001e+00 0.000000e+00 2.463962e+01
      endloop
   endfacet
   facet normal -0.000000e+00 -1.000000e+00 0.000000e+00
      outer loop
         vertex 9.500001e+00 0.000000e+00 2.463962e+01
         vertex 0.000000e+00 0.000000e+00 7.000000e+01
         vertex 0.000000e+00 0.000000e+00 0.000000e+00
      endloop
   endfacet
   facet normal 0.000000e+00 -1.000000e+00 -0.000000e+00
      outer loop
         vertex 9.500001e+00 0.000000e+00 2.463962e+01
         vertex 0.000000e+00 0.000000e+00 0.000000e+00
         vertex 4.050000e+01 0.000000e+00 1.430629e+01
      endloop
   endfacet
   facet normal 0.000000e+00 -1.000000e+00 -0.000000e+00
      outer loop
         vertex 4.050000e+01 0.000000e+00 1.430629e+01
         vertex 0.000000e+00 0.000000e+00 0.000000e+00
         vertex 5.000000e+01 0.000000e+00 0.000000e+00
      endloop
   endfacet
   facet normal 0.000000e+00 -1.000000e+00 0.000000e+00
      outer loop
         vertex 4.050000e+01 0.000000e+00 1.430629e+01
         vertex 5.000000e+01 0.000000e+00 0.000000e+00
         vertex 4.050000e+01 0.000000e+00 5.569371e+01
      endloop
   endfacet
   facet normal 0.000000e+00 -1.000000e+00 0.000000e+00
      outer loop
         vertex 4.050000e+01 0.000000e+00 5.569371e+01
         vertex 5.000000e+01 0.000000e+00 0.000000e+00
         vertex 5.000000e+01 0.000000e+00 7.000000e+01
      endloop
   endfacet
   facet normal -0.000000e+00 -1.000000e+00 0.000000e+00
      outer loop
         vertex 4.050000e+01 0.000000e+00 5.569371e+01
         vertex 5.000000e+01 0.000000e+00 7.000000e+01
         vertex 9.500001e+00 0.000000e+00 4.536038e+01
      endloop
   endfacet
   facet normal 0.000000e+00 -1.000000e+00 0.000000e+00
      outer loop
         vertex 9.500001e+00 0.000000e+00 4.536038e+01
         vertex 5.000000e+01 0.000000e+00 7.000000e+01
         vertex 0.000000e+00 0.000000e+00 7.000000e+01
      endloop
   endfacet
   facet normal -1.000000e+00 -0.000000e+00 -0.000000e+00
      outer loop
         vertex 0.000000e+00 2.000000e+01 7.000000e+01
         vertex 0.000000e+00 2.000000e+01 0.000000e+00
         vertex 0.000000e+00 0.000000e+00 7.000000e+01
      endloop
   endfacet
   facet normal -1.000000e+00 0.000000e+00 0.000000e+00
      outer loop
         vertex 0.000000e+00 0.000000e+00 7.000000e+01
         vertex 0.000000e+00 2.000000e+01 0.000000e+00
         vertex 0.000000e+00 0.000000e+00 0.000000e+00
      endloop
   endfacet
   facet normal 0.000000e+00 0.000000e+00 1.000000e+00
      outer loop
         vertex 5.000000e+01 2.000000e+01 7.000000e+01
         vertex 0.000000e+00 2.000000e+01 7.000000e+01
         vertex 5.000000e+01 0.000000e+00 7.000000e+01
      endloop
   endfacet
   facet normal 0.000000e+00 0.000000e+00 1.000000e+00
      outer loop
         vertex 5.000000e+01 0.000000e+00 7.000000e+01
         vertex 0.000000e+00 2.000000e+01 7.000000e+01
         vertex 0.000000e+00 0.000000e+00 7.000000e+01
      endloop
   endfacet
   facet normal 1.000000e+00 0.000000e+00 -0.000000e+00
      outer loop
         vertex 5.000000e+01 2.000000e+01 0.000000e+00
         vertex 5.000000e+01 2.000000e+01 7.000000e+01
         vertex 5.000000e+01 0.000000e+00 0.000000e+00
      endloop
   endfacet
   facet normal 1.000000e+00 0.000000e+00 0.000000e+00
      outer loop
         vertex 5.000000e+01 0.000000e+00 0.000000e+00
         vertex 5.000000e+01 2.000000e+01 7.000000e+01
         vertex 5.000000e+01 0.000000e+00 7.000000e+01
      endloop
   endfacet
   facet normal 0.000000e+00 0.000000e+00 -1.000000e+00
      outer loop
         vertex 0.000000e+00 2.000000e+01 0.000000e+00
         vertex 5.000000e+01 2.000000e+01 0.000000e+00
         vertex 0.000000e+00 0.000000e+00 0.000000e+00
      endloop
   endfacet
   facet normal 0.000000e+00 0.000000e+00 -1.000000e+00
      outer loop
         vertex 0.000000e+00 0.000000e+00 0.000000e+00
         vertex 5.000000e+01 2.000000e+01 0.000000e+00
         vertex 5.000000e+01 0.000000e+00 0.000000e+00
      endloop
   endfacet
   facet normal 3.162278e-01 0.000000e+00 9.486833e-01
      outer loop
         vertex 4.050000e+01 2.000000e+01 1.430629e+01
         vertex 9.500001e+00 2.000000e+01 2.463962e+01
         vertex 4.050000e+01 0.000000e+00 1.430629e+01
      endloop
   endfacet
   facet normal 3.162278e-01 0.000000e+00 9.486833e-01
      outer loop
         vertex 4.050000e+01 0.000000e+00 1.430629e+01
         vertex 9.500001e+00 2.000000e+01 2.463962e+01
         vertex 9.500001e+00 0.000000e+00 2.463962e+01
      endloop
   endfacet
   facet normal 1.000000e+00 0.000000e+00 -0.000000e+00
      outer loop
         vertex 9.500001e+00 2.000000e+01 2.463962e+01
         vertex 9.500001e+00 2.000000e+01 4.536038e+01
         vertex 9.500001e+00 0.000000e+00 2.463962e+01
      endloop
   endfacet
   facet normal 1.000000e+00 0.000000e+00 0.000000e+00
      outer loop
         vertex 9.500001e+00 0.000000e+00 2.463962e+01
         vertex 9.500001e+00 2.000000e+01 4.536038e+01
         vertex 9.500001e+00 0.000000e+00 4.536038e+01
      endloop
   endfacet
   facet normal 3.162278e-01 0.000000e+00 -9.486833e-01
      outer loop
         vertex 9.500001e+00 2.000000e+01 4.536038e+01
         vertex 4.050000e+01 2.000000e+01 5.569371e+01
         vertex 9.500001e+00 0.000000e+00 4.536038e+01
      endloop
   endfacet
   facet normal 3.162278e-01 0.000000e+00 -9.486833e-01
      outer loop
         vertex 9.500001e+00 0.000000e+00 4.536038e+01
         vertex 4.050000e+01 2.000000e+01 5.569371e+01
         vertex 4.050000e+01 0.000000e+00 5.569371e+01
      endloop
   endfacet
   facet normal -1.000000e+00 -0.000000e+00 -0.000000e+00
      outer loop
         vertex 4.050000e+01 2.000000e+01 5.569371e+01
         vertex 4.050000e+01 2.000000e+01 1.430629e+01
         vertex 4.050000e+01 0.000000e+00 5.569371e+01
      endloop
   endfacet
   facet normal -1.000000e+00 0.000000e+00 0.000000e+00
      outer loop
         vertex 4.050000e+01 0.000000e+00 5.569371e+01
         vertex 4.050000e+01 2.000000e+01 1.430629e+01
         vertex 4.050000e+01 0.000000e+00 1.430629e+01
      endloop
   endfacet
endsolid