solid triangle_peg
   facet normal 5.000000e-01 0.000000e+00 8.660254e-01
      outer loop
         vertex 3.000000e+01 5.000000e+01 1.732051e+01
         vertex 0.000000e+00 5.000000e+01 3.464102e+01
         vertex 3.000000e+01 0.000000e+00 1.732051e+01
      endloop
   endfacet
   facet normal 5.000000e-01 0.000000e+00 8.660254e-01
      outer loop
         vertex 3.000000e+01 0.000000e+00 1.732051e+01
         vertex 0.000000e+00 5.000000e+01 3.464102e+01
         vertex 0.000000e+00 0.000000e+00 3.464102e+01
      endloop
   endfacet
   facet normal 5.000000e-01 0.000000e+00 -8.660254e-01
      outer loop
         vertex 0.000000e+00 5.000000e+01 0.000000e+00
         vertex 3.000000e+01 5.000000e+01 1.732051e+01
         vertex 0.000000e+00 -2.775558e-14 0.000000e+00
      endloop
   endfacet
   facet normal 5.000000e-01 0.000000e+00 -8.660254e-01
      outer loop
         vertex 0.000000e+00 -2.775558e-14 0.000000e+00
         vertex 3.000000e+01 5.000000e+01 1.732051e+01
         vertex 3.000000e+01 -2.775558e-14 1.732051e+01
      endloop
   endfacet
   facet normal -1.000000e+00 -0.000000e+00 -0.000000e+00
      outer loop
         vertex 0.000000e+00 5.000000e+01 3.464102e+01
         vertex 0.000000e+00 5.000000e+01 0.000000e+00
         vertex 0.000000e+00 0.000000e+00 3.464102e+01
      endloop
   endfacet
   facet normal -1.000000e+00 0.000000e+00 0.000000e+00
      outer loop
         vertex 0.000000e+00 0.000000e+00 3.464102e+01
         vertex 0.000000e+00 5.000000e+01 0.000000e+00
         vertex 0.000000e+00 0.000000e+00 0.000000e+00
      endloop
   endfacet
   facet normal 0.000000e+00 1.000000e+00 0.000000e+00
      outer loop
         vertex 3.000000e+01 5.000000e+01 1.732051e+01
         vertex 0.000000e+00 5.000000e+01 0.000000e+00
         vertex 0.000000e+00 5.000000e+01 3.464102e+01
      endloop
   endfacet
   facet normal 0.000000e+00 -1.000000e+00 0.000000e+00
      outer loop
         vertex 0.000000e+00 0.000000e+00 3.464102e+01
         vertex 0.000000e+00 0.000000e+00 0.000000e+00
         vertex 3.000000e+01 0.000000e+00 1.732051e+01
      endloop
   endfacet
endsolid