solid triangle_hole_1.5mm
   facet normal 0.000000e+00 1.000000e+00 0.000000e+00
      outer loop
         vertex 4.300000e+01 2.000000e+01 3.500000e+01
         vertex 5.000000e+01 2.000000e+01 0.000000e+00
         vertex 8.500000e+00 2.000000e+01 1.508141e+01
      endloop
   endfacet
   facet normal 0.000000e+00 1.000000e+00 0.000000e+00
      outer loop
         vertex 8.500000e+00 2.000000e+01 1.508141e+01
         vertex 5.000000e+01 2.000000e+01 0.000000e+00
         vertex 0.000000e+00 2.000000e+01 0.000000e+00
      endloop
   endfacet
   facet normal 0.000000e+00 1.000000e+00 -0.000000e+00
      outer loop
         vertex 8.500000e+00 2.000000e+01 1.508141e+01
         vertex 0.000000e+00 2.000000e+01 0.000000e+00
         vertex 8.500000e+00 2.000000e+01 5.491859e+01
      endloop
   endfacet
   facet normal 0.000000e+00 1.000000e+00 0.000000e+00
      outer loop
         vertex 8.500000e+00 2.000000e+01 5.491859e+01
         vertex 0.000000e+00 2.000000e+01 0.000000e+00
         vertex 0.000000e+00 2.000000e+01 7.000000e+01
      endloop
   endfacet
   facet normal -0.000000e+00 1.000000e+00 -0.000000e+00
      outer loop
         vertex 8.500000e+00 2.000000e+01 5.491859e+01
         vertex 0.000000e+00 2.000000e+01 7.000000e+01
         vertex 4.300000e+01 2.000000e+01 3.500000e+01
      endloop
   endfacet
   facet normal 0.000000e+00 1.000000e+00 -0.000000e+00
      outer loop
         vertex 4.300000e+01 2.000000e+01 3.500000e+01
         vertex 0.000000e+00 2.000000e+01 7.000000e+01
         vertex 5.000000e+01 2.000000e+01 7.000000e+01
      endloop
   endfacet
   facet normal -0.000000e+00 1.000000e+00 0.000000e+00
      outer loop
         vertex 4.300000e+01 2.000000e+01 3.500000e+01
         vertex 5.000000e+01 2.000000e+01 7.000000e+01
         vertex 5.000000e+01 2.000000e+01 0.000000e+00
      endloop
   endfacet
   facet normal 0.000000e+00 -1.000000e+00 0.000000e+00
      outer loop
         vertex 4.300000e+01 0.000000e+00 3.500000e+01
         vertex 5.000000e+01 0.000000e+00 7.000000e+01
         vertex 8.500000e+00 0.000000e+00 5.491859e+01
      endloop
   endfacet
   facet normal 0.000000e+00 -1.000000e+00 0.000000e+00
      outer loop
         vertex 8.500000e+00 0.000000e+00 5.491859e+01
         vertex 5.000000e+01 0.000000e+00 7.000000e+01
         vertex 0.000000e+00 0.000000e+00 7.000000e+01
      endloop
   endfacet
   facet normal -0.000000e+00 -1.000000e+00 -0.000000e+00
      outer loop
         vertex 8.500000e+00 0.000000e+00 5.491859e+01
         vertex 0.000000e+00 0.000000e+00 7.000000e+01
         vertex 8.500000e+00 0.000000e+00 1.508141e+01
      endloop
   endfacet
   facet normal -0.000000e+00 -1.000000e+00 0.000000e+00
      outer loop
         vertex 8.500000e+00 0.000000e+00 1.508141e+01
         vertex 0.000000e+00 0.000000e+00 7.000000e+01
         vertex 0.000000e+00 0.000000e+00 0.000000e+00
      endloop
   endfacet
   facet normal 0.000000e+00 -1.000000e+00 -0.000000e+00
      outer loop
         vertex 8.500000e+00 0.000000e+00 1.508141e+01
         vertex 0.000000e+00 0.000000e+00 0.000000e+00
         vertex 4.300000e+01 0.000000e+00 3.500000e+01
      endloop
   endfacet
   facet normal 0.000000e+00 -1.000000e+00 -0.000000e+00
      outer loop
         vertex 4.300000e+01 0.000000e+00 3.500000e+01
         vertex 0.000000e+00 0.000000e+00 0.000000e+00
         vertex 5.000000e+01 0.000000e+00 0.000000e+00
      endloop
   endfacet
   facet normal 0.000000e+00 -1.000000e+00 0.000000e+00
      outer loop
         vertex 4.300000e+01 0.000000e+00 3.500000e+01
         vertex 5.000000e+01 0.000000e+00 0.000000e+00
         vertex 5.000000e+01 0.000000e+00 7.000000e+01
      endloop
   endfacet
   facet normal -1.000000e+00 -0.000000e+00 -0.000000e+00
      outer loop
         vertex 0.000000e+00 2.000000e+01 7.000000e+01
         vertex 0.000000e+00 2.000000e+01 0.000000e+00
         vertex 0.000000e+00 0.000000e+00 7.000000e+01
      endloop
   endfacet
   facet normal -1.000000e+00 0.000000e+00 0.000000e+00
      outer loop
         vertex 0.000000e+00 0.000000e+00 7.000000e+01
         vertex 0.000000e+00 2.000000e+01 0.000000e+00
         vertex 0.000000e+00 0.000000e+00 0.000000e+00
      endloop
   endfacet
   facet normal 0.000000e+00 0.000000e+00 1.000000e+00
      outer loop
         vertex 5.000000e+01 2.000000e+01 7.000000e+01
         vertex 0.000000e+00 2.000000e+01 7.000000e+01
         vertex 5.000000e+01 0.000000e+00 7.000000e+01
      endloop
   endfacet
   facet normal 0.000000e+00 0.000000e+00 1.000000e+00
      outer loop
         vertex 5.000000e+01 0.000000e+00 7.000000e+01
         vertex 0.000000e+00 2.000000e+01 7.000000e+01
         vertex 0.000000e+00 0.000000e+00 7.000000e+01
      endloop
   endfacet
   facet normal 1.000000e+00 0.000000e+00 -0.000000e+00
      outer loop
         vertex 5.000000e+01 2.000000e+01 0.000000e+00
         vertex 5.000000e+01 2.000000e+01 7.000000e+01
         vertex 5.000000e+01 0.000000e+00 0.000000e+00
      endloop
   endfacet
   facet normal 1.000000e+00 0.000000e+00 0.000000e+00
      outer loop
         vertex 5.000000e+01 0.000000e+00 0.000000e+00
         vertex 5.000000e+01 2.000000e+01 7.000000e+01
         vertex 5.000000e+01 0.000000e+00 7.000000e+01
      endloop
   endfacet
   facet normal 0.000000e+00 0.000000e+00 -1.000000e+00
      outer loop
         vertex 0.000000e+00 2.000000e+01 0.000000e+00
         vertex 5.000000e+01 2.000000e+01 0.000000e+00
         vertex 0.000000e+00 0.000000e+00 0.000000e+00
      endloop
   endfacet
   facet normal 0.000000e+00 0.000000e+00 -1.000000e+00
      outer loop
         vertex 0.000000e+00 0.000000e+00 0.000000e+00
         vertex 5.000000e+01 2.000000e+01 0.000000e+00
         vertex 5.000000e+01 0.000000e+00 0.000000e+00
      endloop
   endfacet
   facet normal -5.000000e-01 -0.000000e+00 -8.660254e-01
      outer loop
         vertex 8.500000e+00 2.000000e+01 5.491859e+01
         vertex 4.300000e+01 2.000000e+01 3.500000e+01
         vertex 8.500000e+00 -6.938894e-15 5.491859e+01
      endloop
   endfacet
   facet normal -5.000000e-01 0.000000e+00 -8.660254e-01
      outer loop
         vertex 8.500000e+00 -6.938894e-15 5.491859e+01
         vertex 4.300000e+01 2.000000e+01 3.500000e+01
         vertex 4.300000e+01 -6.938894e-15 3.500000e+01
      endloop
   endfacet
   facet normal -5.000000e-01 0.000000e+00 8.660254e-01
      outer loop
         vertex 4.300000e+01 2.000000e+01 3.500000e+01
         vertex 8.500000e+00 2.000000e+01 1.508141e+01
         vertex 4.300000e+01 -6.938894e-15 3.500000e+01
      endloop
   endfacet
   facet normal -5.000000e-01 0.000000e+00 8.660254e-01
      outer loop
         vertex 4.300000e+01 -6.938894e-15 3.500000e+01
         vertex 8.500000e+00 2.000000e+01 1.508141e+01
         vertex 8.500000e+00 -6.938894e-15 1.508141e+01
      endloop
   endfacet
   facet normal 1.000000e+00 0.000000e+00 -0.000000e+00
      outer loop
         vertex 8.500000e+00 2.000000e+01 1.508141e+01
         vertex 8.500000e+00 2.000000e+01 5.491859e+01
         vertex 8.500000e+00 0.000000e+00 1.508141e+01
      endloop
   endfacet
   facet normal 1.000000e+00 0.000000e+00 0.000000e+00
      outer loop
         vertex 8.500000e+00 0.000000e+00 1.508141e+01
         vertex 8.500000e+00 2.000000e+01 5.491859e+01
         vertex 8.500000e+00 0.000000e+00 5.491859e+01
      endloop
   endfacet
endsolid